# xmcd
#
# Track frame offsets: 
#        150
#        23125
#        41980
#        61310
#        81135
#        102172
#        116927
#        166080
#        187957
#        207285
#        221230
#        246215
#        262570
#        282577
#        292882
#        308670
#
# Disc length: 4318 seconds
#
# Revision: 0
# Processed by: cddbd v1.5.1PL0 Copyright (c) Steve Scherf et al.
# Submitted via: ExactAudioCopy v0.95a3
#
DISCID=e410dc10
DTITLE=Cymande - Renegades of Funk
DYEAR=2005
DGENRE=Funk
TTITLE0=Bra
TTITLE1=Brothers on the slide
TTITLE2=The message
TTITLE3=Fub
TTITLE4=Listen
TTITLE5=Genevieve
TTITLE6=Dove
TTITLE7=Willy's heartache
TTITLE8=Getting it back
TTITLE9=One more
TTITLE10=Anthracite
TTITLE11=Equitorial forest
TTITLE12=Bird
TTITLE13=For Baby ooh
TTITLE14=Zion I
TTITLE15=Trevorgus
EXTD=
EXTT0=
EXTT1=
EXTT2=
EXTT3=
EXTT4=
EXTT5=
EXTT6=
EXTT7=
EXTT8=
EXTT9=
EXTT10=
EXTT11=
EXTT12=
EXTT13=
EXTT14=
EXTT15=
PLAYORDER=
